<svg width="725" height="852" viewBox="0 0 725 852" fill="none" xmlns="http://www.w3.org/2000/svg">
<path d="M547.644 211.781C532.121 106.563 219.929 13.4195 69.0083 -21.0781H0.015625L120.753 39.2928C185.433 71.6343 366.539 198.844 366.539 198.844C366.539 198.844 411.707 225.203 398.879 282.932C395.429 298.456 358.633 325.336 340.666 336.835C291.797 358.396 186.296 401.087 69.0083 485.606C-19.3888 558.914 0.015625 630.065 56.0721 720.621C109.541 782.717 246.52 861.487 301.858 895.266H724.438C603.701 844.957 347.566 730.108 288.922 673.187C215.617 602.036 267.197 562.936 280.133 541.375C293.069 519.814 312.638 502.855 379.475 461.889C519.616 364.864 566.094 336.835 547.644 211.781Z" fill="#2B5197"/>
</svg>
